<svg xmlns="http://www.w3.org/2000/svg" width="278" height="86" viewBox="0 0 278 86" fill="none">
  <path d="M65.5 43C65.5 55.9787 54.9787 66.5 42 66.5C29.0213 66.5 18.5 55.9787 18.5 43C18.5 30.0213 29.0213 19.5 42 19.5C54.9787 19.5 65.5 30.0213 65.5 43Z" stroke="#2B6CB0" stroke-width="3"/>
  <path d="M42 19.5V30.5" stroke="#2B6CB0" stroke-width="3" stroke-linecap="round"/>
  <path d="M42 55.5V66.5" stroke="#2B6CB0" stroke-width="3" stroke-linecap="round"/>
  <path d="M65.5 43L54.5 43" stroke="#2B6CB0" stroke-width="3" stroke-linecap="round"/>
  <path d="M29.5 43L18.5 43" stroke="#2B6CB0" stroke-width="3" stroke-linecap="round"/>
  <path d="M58.6673 26.8327L50.9602 34.5398" stroke="#2B6CB0" stroke-width="3" stroke-linecap="round"/>
  <path d="M33.0398 51.4602L25.3327 59.1673" stroke="#2B6CB0" stroke-width="3" stroke-linecap="round"/>
  <path d="M58.6673 59.1673L50.9602 51.4602" stroke="#2B6CB0" stroke-width="3" stroke-linecap="round"/>
  <path d="M33.0398 34.5398L25.3327 26.8327" stroke="#2B6CB0" stroke-width="3" stroke-linecap="round"/>
  <path d="M42 36.5V43" stroke="#2B6CB0" stroke-width="3" stroke-linecap="round"/>
  <path d="M42 43L47 48" stroke="#2B6CB0" stroke-width="3" stroke-linecap="round"/>
  <path d="M89.9688 57V29.4H95.0488V52.56H106.529V57H89.9688Z" fill="#2B6CB0"/>
  <path d="M124.5 57.48C122.1 57.48 119.94 56.94 118.02 55.86C116.1 54.78 114.6 53.28 113.52 51.36C112.44 49.44 111.9 47.28 111.9 44.88C111.9 42.48 112.44 40.32 113.52 38.4C114.6 36.48 116.1 34.98 118.02 33.9C119.94 32.82 122.1 32.28 124.5 32.28C126.9 32.28 129.06 32.82 130.98 33.9C132.9 34.98 134.4 36.48 135.48 38.4C136.56 40.32 137.1 42.48 137.1 44.88C137.1 47.28 136.56 49.44 135.48 51.36C134.4 53.28 132.9 54.78 130.98 55.86C129.06 56.94 126.9 57.48 124.5 57.48ZM124.5 53.04C126 53.04 127.32 52.7 128.46 52.02C129.6 51.34 130.5 50.4 131.16 49.2C131.82 48 132.15 46.56 132.15 44.88C132.15 43.2 131.82 41.76 131.16 40.56C130.5 39.36 129.6 38.42 128.46 37.74C127.32 37.06 126 36.72 124.5 36.72C123 36.72 121.68 37.06 120.54 37.74C119.4 38.42 118.5 39.36 117.84 40.56C117.18 41.76 116.85 43.2 116.85 44.88C116.85 46.56 117.18 48 117.84 49.2C118.5 50.4 119.4 51.34 120.54 52.02C121.68 52.7 123 53.04 124.5 53.04Z" fill="#2B6CB0"/>
  <path d="M156.353 57.48C153.953 57.48 151.793 56.94 149.873 55.86C147.953 54.78 146.453 53.28 145.373 51.36C144.293 49.44 143.753 47.28 143.753 44.88C143.753 42.48 144.293 40.32 145.373 38.4C146.453 36.48 147.953 34.98 149.873 33.9C151.793 32.82 153.953 32.28 156.353 32.28C158.753 32.28 160.913 32.82 162.833 33.9C164.753 34.98 166.253 36.48 167.333 38.4C168.413 40.32 168.953 42.48 168.953 44.88C168.953 47.28 168.413 49.44 167.333 51.36C166.253 53.28 164.753 54.78 162.833 55.86C160.913 56.94 158.753 57.48 156.353 57.48ZM156.353 53.04C157.853 53.04 159.173 52.7 160.313 52.02C161.453 51.34 162.353 50.4 163.013 49.2C163.673 48 164.003 46.56 164.003 44.88C164.003 43.2 163.673 41.76 163.013 40.56C162.353 39.36 161.453 38.42 160.313 37.74C159.173 37.06 157.853 36.72 156.353 36.72C154.853 36.72 153.533 37.06 152.393 37.74C151.253 38.42 150.353 39.36 149.693 40.56C149.033 41.76 148.703 43.2 148.703 44.88C148.703 46.56 149.033 48 149.693 49.2C150.353 50.4 151.253 51.34 152.393 52.02C153.533 52.7 154.853 53.04 156.353 53.04Z" fill="#2B6CB0"/>
  <path d="M173.006 57V32.76H177.956V57H173.006ZM175.486 28.56C174.566 28.56 173.786 28.28 173.146 27.72C172.506 27.16 172.186 26.46 172.186 25.62C172.186 24.78 172.506 24.08 173.146 23.52C173.786 22.96 174.566 22.68 175.486 22.68C176.406 22.68 177.186 22.96 177.826 23.52C178.466 24.06 178.786 24.74 178.786 25.56C178.786 26.44 178.466 27.16 177.826 27.72C177.206 28.28 176.426 28.56 175.486 28.56Z" fill="#2B6CB0"/>
  <path d="M196.659 57.48C194.259 57.48 192.099 56.94 190.179 55.86C188.259 54.78 186.759 53.28 185.679 51.36C184.599 49.44 184.059 47.28 184.059 44.88C184.059 42.48 184.599 40.32 185.679 38.4C186.759 36.48 188.259 34.98 190.179 33.9C192.099 32.82 194.259 32.28 196.659 32.28C199.059 32.28 201.219 32.82 203.139 33.9C205.059 34.98 206.559 36.48 207.639 38.4C208.719 40.32 209.259 42.48 209.259 44.88C209.259 47.28 208.719 49.44 207.639 51.36C206.559 53.28 205.059 54.78 203.139 55.86C201.219 56.94 199.059 57.48 196.659 57.48ZM196.659 53.04C198.159 53.04 199.479 52.7 200.619 52.02C201.759 51.34 202.659 50.4 203.319 49.2C203.979 48 204.309 46.56 204.309 44.88C204.309 43.2 203.979 41.76 203.319 40.56C202.659 39.36 201.759 38.42 200.619 37.74C199.479 37.06 198.159 36.72 196.659 36.72C195.159 36.72 193.839 37.06 192.699 37.74C191.559 38.42 190.659 39.36 189.999 40.56C189.339 41.76 189.009 43.2 189.009 44.88C189.009 46.56 189.339 48 189.999 49.2C190.659 50.4 191.559 51.34 192.699 52.02C193.839 52.7 195.159 53.04 196.659 53.04Z" fill="#2B6CB0"/>
  <path d="M213.312 57V32.76H218.022V36.48C218.682 35.2 219.642 34.22 220.902 33.54C222.162 32.86 223.602 32.52 225.222 32.52C227.382 32.52 229.182 33.14 230.622 34.38C232.062 35.62 232.782 37.42 232.782 39.78V57H227.832V40.86C227.832 39.38 227.422 38.22 226.602 37.38C225.782 36.54 224.682 36.12 223.302 36.12C221.922 36.12 220.782 36.54 219.882 37.38C218.982 38.22 218.532 39.38 218.532 40.86V57H213.312Z" fill="#2B6CB0"/>
  <path d="M252.891 57.48C250.491 57.48 248.331 56.94 246.411 55.86C244.491 54.78 242.991 53.28 241.911 51.36C240.831 49.44 240.291 47.28 240.291 44.88C240.291 42.48 240.831 40.32 241.911 38.4C242.991 36.48 244.491 34.98 246.411 33.9C248.331 32.82 250.491 32.28 252.891 32.28C255.291 32.28 257.451 32.82 259.371 33.9C261.291 34.98 262.791 36.48 263.871 38.4C264.951 40.32 265.491 42.48 265.491 44.88C265.491 47.28 264.951 49.44 263.871 51.36C262.791 53.28 261.291 54.78 259.371 55.86C257.451 56.94 255.291 57.48 252.891 57.48ZM252.891 53.04C254.391 53.04 255.711 52.7 256.851 52.02C257.991 51.34 258.891 50.4 259.551 49.2C260.211 48 260.541 46.56 260.541 44.88C260.541 43.2 260.211 41.76 259.551 40.56C258.891 39.36 257.991 38.42 256.851 37.74C255.711 37.06 254.391 36.72 252.891 36.72C251.391 36.72 250.071 37.06 248.931 37.74C247.791 38.42 246.891 39.36 246.231 40.56C245.571 41.76 245.241 43.2 245.241 44.88C245.241 46.56 245.571 48 246.231 49.2C246.891 50.4 247.791 51.34 248.931 52.02C250.071 52.7 251.391 53.04 252.891 53.04Z" fill="#2B6CB0"/>
  <path d="M269.544 57V32.76H274.254V36.48C274.914 35.2 275.874 34.22 277.134 33.54C278.394 32.86 279.834 32.52 281.454 32.52C283.614 32.52 285.414 33.14 286.854 34.38C288.294 35.62 289.014 37.42 289.014 39.78V57H284.064V40.86C284.064 39.38 283.654 38.22 282.834 37.38C282.014 36.54 280.914 36.12 279.534 36.12C278.154 36.12 277.014 36.54 276.114 37.38C275.214 38.22 274.764 39.38 274.764 40.86V57H269.544Z" fill="#2B6CB0"/>
</svg>